<?xml version="1.0" encoding="UTF-8"?>
<!DOCTYPE svg PUBLIC "-//W3C//DTD SVG 1.1//EN" "http://www.w3.org/Graphics/SVG/1.1/DTD/svg11.dtd">
<svg xmlns="http://www.w3.org/2000/svg" version="1.1" width="150px" height="150px" style="shape-rendering:geometricPrecision; text-rendering:geometricPrecision; image-rendering:optimizeQuality; fill-rule:evenodd; clip-rule:evenodd" xmlns:xlink="http://www.w3.org/1999/xlink">
<g><path style="opacity:0.815" fill="#070608" d="M 66.5,3.5 C 85.4039,-0.00727389 99.2372,6.65939 108,23.5C 112.696,35.9325 112.362,48.2658 107,60.5C 103.284,67.4346 99.451,74.268 95.5,81C 95.8333,82.1667 96.1667,83.3333 96.5,84.5C 105.81,88.4883 114.81,92.9883 123.5,98C 127.667,101.5 131.5,105.333 135,109.5C 139.595,121.758 136.429,131.258 125.5,138C 117.184,141.53 108.518,143.53 99.5,144C 84.1667,144.667 68.8333,144.667 53.5,144C 42.3426,143.63 32.0092,140.63 22.5,135C 17.0933,131.451 14.7599,126.451 15.5,120C 15.2735,115.923 16.1068,112.09 18,108.5C 22.5752,103.254 27.7419,98.7538 33.5,95C 41.0554,90.593 48.8888,86.7597 57,83.5C 56.8967,78.6824 54.8967,74.6824 51,71.5C 43.5981,59.2202 40.5981,45.8869 42,31.5C 45.3255,17.8 53.4922,8.46666 66.5,3.5 Z"/></g>
<g><path style="opacity:1" fill="#cfc4f0" d="M 68.5,7.5 C 95.9249,6.75984 108.425,20.0932 106,47.5C 103.641,58.8847 98.641,68.8847 91,77.5C 89.703,82.1169 90.8697,85.9502 94.5,89C 109.07,92.8554 121.236,100.355 131,111.5C 134.971,121.302 132.471,128.802 123.5,134C 113.849,137.72 103.849,139.72 93.5,140C 80.5,140.667 67.5,140.667 54.5,140C 44.2504,139.355 34.5837,136.688 25.5,132C 18.9023,125.826 17.7357,118.659 22,110.5C 32.1393,99.8405 44.306,92.3405 58.5,88C 61.2648,85.0052 62.0981,81.5052 61,77.5C 50.2103,64.7973 45.2103,50.1307 46,33.5C 48.3855,20.2888 55.8855,11.6222 68.5,7.5 Z"/></g>
</svg>
