<?xml version="1.0" encoding="UTF-8"?>
<!DOCTYPE svg PUBLIC "-//W3C//DTD SVG 1.1//EN" "http://www.w3.org/Graphics/SVG/1.1/DTD/svg11.dtd">
<svg xmlns="http://www.w3.org/2000/svg" version="1.1" width="150px" height="150px" style="shape-rendering:geometricPrecision; text-rendering:geometricPrecision; image-rendering:optimizeQuality; fill-rule:evenodd; clip-rule:evenodd" xmlns:xlink="http://www.w3.org/1999/xlink">
<g><path style="opacity:0.878" fill="#070101" d="M 70.5,15.5 C 77.0837,13.8683 81.2504,16.2017 83,22.5C 83.4988,26.4862 83.6655,30.4862 83.5,34.5C 91.84,34.3336 100.173,34.5003 108.5,35C 113.525,36.6891 117.359,39.8558 120,44.5C 121.623,66.4493 121.956,88.4493 121,110.5C 119.5,116 116,119.5 110.5,121C 86.5,121.667 62.5,121.667 38.5,121C 33,119.5 29.5,116 28,110.5C 27.0439,88.4493 27.3772,66.4493 29,44.5C 31.6415,39.8558 35.4748,36.6891 40.5,35C 48.8267,34.5003 57.16,34.3336 65.5,34.5C 64.962,28.5982 65.7953,22.9315 68,17.5C 68.9947,16.9341 69.828,16.2674 70.5,15.5 Z M 52.5,62.5 C 57.4138,61.7817 60.4138,63.7817 61.5,68.5C 58.5373,75.5408 54.704,76.2075 50,70.5C 49.0182,67.2253 49.8515,64.5586 52.5,62.5 Z M 91.5,62.5 C 97.3259,62.157 99.8259,64.8236 99,70.5C 94.296,76.2075 90.4627,75.5408 87.5,68.5C 87.937,65.775 89.2704,63.775 91.5,62.5 Z M 50.5,96.5 C 53.5719,96.1826 56.5719,96.5159 59.5,97.5C 58,97.8333 56.5,98.1667 55,98.5C 53.0145,98.4313 51.5145,97.7647 50.5,96.5 Z M 70.5,96.5 C 73.2469,96.1866 75.9135,96.52 78.5,97.5C 77.1667,97.8333 75.8333,98.1667 74.5,98.5C 72.6672,98.4146 71.3339,97.7479 70.5,96.5 Z M 89.5,96.5 C 92.5719,96.1826 95.5719,96.5159 98.5,97.5C 97,97.8333 95.5,98.1667 94,98.5C 92.0145,98.4313 90.5145,97.7647 89.5,96.5 Z"/></g>
<g><path style="opacity:1" fill="#e33030" d="M 71.5,17.5 C 75.0134,16.8757 77.8467,17.8757 80,20.5C 80.4994,25.8229 80.666,31.1563 80.5,36.5C 89.8393,36.3335 99.1726,36.5002 108.5,37C 113.757,39.2563 117.257,43.0896 119,48.5C 119.667,68.8333 119.667,89.1667 119,109.5C 117.932,114.235 115.099,117.402 110.5,119C 86.5,119.667 62.5,119.667 38.5,119C 34.3333,117.5 31.5,114.667 30,110.5C 29.3333,89.8333 29.3333,69.1667 30,48.5C 31.7425,43.0896 35.2425,39.2563 40.5,37C 49.8274,36.5002 59.1607,36.3335 68.5,36.5C 68.334,31.1563 68.5006,25.8229 69,20.5C 69.6979,19.3094 70.5313,18.3094 71.5,17.5 Z M 52.5,62.5 C 49.8515,64.5586 49.0182,67.2253 50,70.5C 54.704,76.2075 58.5373,75.5408 61.5,68.5C 60.4138,63.7817 57.4138,61.7817 52.5,62.5 Z M 91.5,62.5 C 89.2704,63.775 87.937,65.775 87.5,68.5C 90.4627,75.5408 94.296,76.2075 99,70.5C 99.8259,64.8236 97.3259,62.157 91.5,62.5 Z M 50.5,96.5 C 51.5145,97.7647 53.0145,98.4313 55,98.5C 56.5,98.1667 58,97.8333 59.5,97.5C 56.5719,96.5159 53.5719,96.1826 50.5,96.5 Z M 70.5,96.5 C 71.3339,97.7479 72.6672,98.4146 74.5,98.5C 75.8333,98.1667 77.1667,97.8333 78.5,97.5C 75.9135,96.52 73.2469,96.1866 70.5,96.5 Z M 89.5,96.5 C 90.5145,97.7647 92.0145,98.4313 94,98.5C 95.5,98.1667 97,97.8333 98.5,97.5C 95.5719,96.5159 92.5719,96.1826 89.5,96.5 Z"/></g>
<g><path style="opacity:0.805" fill="#010000" d="M 14.5,59.5 C 18.1064,59.2108 21.6064,59.5442 25,60.5C 25.8226,74.4083 25.6559,88.2417 24.5,102C 20.0745,102.791 15.7411,102.457 11.5,101C 10.2986,100.097 9.46524,98.9308 9,97.5C 8.33333,86.5 8.33333,75.5 9,64.5C 10.7038,62.6266 12.5372,60.9599 14.5,59.5 Z"/></g>
<g><path style="opacity:0.805" fill="#010000" d="M 124.5,59.5 C 127.85,59.335 131.183,59.5017 134.5,60C 136.649,61.152 138.482,62.652 140,64.5C 140.667,75.5 140.667,86.5 140,97.5C 139.065,100.102 137.232,101.602 134.5,102C 130.909,102.789 127.409,102.622 124,101.5C 123.186,87.4252 123.352,73.4252 124.5,59.5 Z"/></g>
<g><path style="opacity:0.858" fill="#0b0201" d="M 52.5,60.5 C 61.1905,60.2338 64.3572,64.2338 62,72.5C 56.8895,77.8855 52.2228,77.5521 48,71.5C 46.3926,66.4383 47.8926,62.7716 52.5,60.5 Z M 52.5,62.5 C 49.8515,64.5586 49.0182,67.2253 50,70.5C 54.704,76.2075 58.5373,75.5408 61.5,68.5C 60.4138,63.7817 57.4138,61.7817 52.5,62.5 Z"/></g>
<g><path style="opacity:0.86" fill="#0b0201" d="M 90.5,60.5 C 101.632,60.7823 104.299,65.6156 98.5,75C 90.5165,77.675 86.3498,74.8417 86,66.5C 86.8041,63.8541 88.3041,61.8541 90.5,60.5 Z M 91.5,62.5 C 89.2704,63.775 87.937,65.775 87.5,68.5C 90.4627,75.5408 94.296,76.2075 99,70.5C 99.8259,64.8236 97.3259,62.157 91.5,62.5 Z"/></g>
<g><path style="opacity:1" fill="#e23030" d="M 15.5,62.5 C 17.8333,62.5 20.1667,62.5 22.5,62.5C 22.5,75.1667 22.5,87.8333 22.5,100.5C 19.8127,100.664 17.146,100.497 14.5,100C 12.6667,99.5 11.5,98.3333 11,96.5C 10.3333,86.1667 10.3333,75.8333 11,65.5C 11.9184,63.6243 13.4184,62.6243 15.5,62.5 Z"/></g>
<g><path style="opacity:1" fill="#b32626" d="M 15.5,62.5 C 17.9479,61.5269 20.6146,61.1936 23.5,61.5C 23.8288,74.6774 23.4955,87.6774 22.5,100.5C 22.5,87.8333 22.5,75.1667 22.5,62.5C 20.1667,62.5 17.8333,62.5 15.5,62.5 Z"/></g>
<g><path style="opacity:1" fill="#b32626" d="M 133.5,62.5 C 131.167,62.5 128.833,62.5 126.5,62.5C 126.5,75.1667 126.5,87.8333 126.5,100.5C 125.505,87.6774 125.171,74.6774 125.5,61.5C 128.385,61.1936 131.052,61.5269 133.5,62.5 Z"/></g>
<g><path style="opacity:1" fill="#e23030" d="M 133.5,62.5 C 135.582,62.6243 137.082,63.6243 138,65.5C 138.667,75.8333 138.667,86.1667 138,96.5C 137.5,98.3333 136.333,99.5 134.5,100C 131.854,100.497 129.187,100.664 126.5,100.5C 126.5,87.8333 126.5,75.1667 126.5,62.5C 128.833,62.5 131.167,62.5 133.5,62.5 Z"/></g>
<g><path style="opacity:1" fill="#370b0b" d="M 61.5,94.5 C 57.5,94.5 53.5,94.5 49.5,94.5C 49.5,96.5 49.5,98.5 49.5,100.5C 48.5318,98.3926 48.1984,96.0593 48.5,93.5C 53.0323,93.1818 57.3656,93.5151 61.5,94.5 Z"/></g>
<g><path style="opacity:1" fill="#370b0b" d="M 87.5,94.5 C 91.6344,93.5151 95.9677,93.1818 100.5,93.5C 100.802,96.0593 100.468,98.3926 99.5,100.5C 99.5,98.5 99.5,96.5 99.5,94.5C 95.5,94.5 91.5,94.5 87.5,94.5 Z"/></g>
<g><path style="opacity:0.792" fill="#020000" d="M 61.5,94.5 C 61.5,96.5 61.5,98.5 61.5,100.5C 57.5,100.5 53.5,100.5 49.5,100.5C 49.5,98.5 49.5,96.5 49.5,94.5C 53.5,94.5 57.5,94.5 61.5,94.5 Z M 50.5,96.5 C 51.5145,97.7647 53.0145,98.4313 55,98.5C 56.5,98.1667 58,97.8333 59.5,97.5C 56.5719,96.5159 53.5719,96.1826 50.5,96.5 Z"/></g>
<g><path style="opacity:0.715" fill="#0f0202" d="M 68.5,93.5 C 72.5,93.5 76.5,93.5 80.5,93.5C 80.5,95.8333 80.5,98.1667 80.5,100.5C 76.5,100.5 72.5,100.5 68.5,100.5C 68.5,98.1667 68.5,95.8333 68.5,93.5 Z M 70.5,96.5 C 71.3339,97.7479 72.6672,98.4146 74.5,98.5C 75.8333,98.1667 77.1667,97.8333 78.5,97.5C 75.9135,96.52 73.2469,96.1866 70.5,96.5 Z"/></g>
<g><path style="opacity:0.792" fill="#020000" d="M 87.5,94.5 C 91.5,94.5 95.5,94.5 99.5,94.5C 99.5,96.5 99.5,98.5 99.5,100.5C 95.5,100.5 91.5,100.5 87.5,100.5C 87.5,98.5 87.5,96.5 87.5,94.5 Z M 89.5,96.5 C 90.5145,97.7647 92.0145,98.4313 94,98.5C 95.5,98.1667 97,97.8333 98.5,97.5C 95.5719,96.5159 92.5719,96.1826 89.5,96.5 Z"/></g>
</svg>
