<?xml version="1.0" encoding="UTF-8"?>
<svg version="1.1" xmlns="http://www.w3.org/2000/svg" width="597" height="111">
<path d="M0 0 C2.67584251 6.79228454 4.75867695 13.69880123 6.79296875 20.70703125 C7.14386063 21.90937912 7.4947525 23.11172699 7.85627747 24.35050964 C8.78088354 27.52311136 9.7023817 30.69659684 10.62298584 33.87036133 C11.37750556 36.46618978 12.13730134 39.06046207 12.89701366 41.65477467 C13.80360177 44.75443063 14.70423097 47.85581619 15.60546875 50.95703125 C15.94603806 52.11950882 16.28660736 53.28198639 16.63749695 54.47969055 C17.10347038 56.0923304 17.10347038 56.0923304 17.57885742 57.73754883 C17.85404709 58.68382645 18.12923676 59.63010406 18.4127655 60.60505676 C19 63 19 63 19 66 C10.72049367 68.21772491 2.52080037 68.60271115 -6 69 C-6.50367757 67.54293274 -7.00282556 66.08429904 -7.5 64.625 C-7.7784375 63.81289062 -8.056875 63.00078125 -8.34375 62.1640625 C-9 60 -9 60 -9 58 C-12.3 58 -15.6 58 -19 58 C-19.66 61.63 -20.32 65.26 -21 69 C-29.89527816 69.24370625 -38.22453806 68.32638561 -47 67 C-46.31752349 60.05706534 -44.22888122 53.57721051 -42.21875 46.91796875 C-41.65843079 45.04217888 -41.65843079 45.04217888 -41.08679199 43.12849426 C-40.29968475 40.49432263 -39.50931737 37.86116066 -38.71630859 35.22875977 C-37.69942636 31.85298466 -36.68859271 28.47543716 -35.67989349 25.09720898 C-34.71594083 21.87011625 -33.74861387 18.64404068 -32.78125 15.41796875 C-32.41769409 14.20344528 -32.05413818 12.98892181 -31.67956543 11.7375946 C-31.17399109 10.05993767 -31.17399109 10.05993767 -30.65820312 8.34838867 C-30.36143677 7.36134445 -30.06467041 6.37430023 -29.75891113 5.35734558 C-29 3 -29 3 -28 1 C-18.74723889 -0.46869224 -9.34241881 -0.09159234 0 0 Z M-14 30 C-14.99 33.96 -15.98 37.92 -17 42 C-15.02 42 -13.04 42 -11 42 C-11.66 38.04 -12.32 34.08 -13 30 C-13.33 30 -13.66 30 -14 30 Z " fill="#121C3F" transform="translate(354,13)"/>
<path d="M0 0 C7.74601771 4.64761063 12.28923661 9.47605333 14.80859375 18.2578125 C16.44187362 25.44424394 17.010816 32.70607754 15.125 39.875 C11.10500981 40.38193672 7.08389046 40.8793039 3.0625 41.375 C1.92876953 41.51808594 0.79503906 41.66117188 -0.37304688 41.80859375 C-5.91265554 42.48691318 -11.29301428 43.06943782 -16.875 42.875 C-15.00933512 46.50293998 -15.00933512 46.50293998 -11.875 48.875 C-3.8381061 49.93647655 2.08489176 46.4809091 9.125 42.875 C9.86320755 63.91391509 9.86320755 63.91391509 5.4453125 68.69140625 C2.97339803 69.91830885 0.85194231 70.43853473 -1.875 70.875 C-3.42574219 71.13990234 -3.42574219 71.13990234 -5.0078125 71.41015625 C-13.73021518 72.47210362 -20.37991195 71.20898803 -28.125 67.1875 C-35.31981835 61.13731184 -40.10557427 53.1696843 -41.10253906 43.71777344 C-41.94207684 31.00854432 -40.99686872 18.82953784 -32.578125 8.625 C-24.06561122 -0.12180315 -12.02549737 -4.60841056 0 0 Z M-12.4375 20.9375 C-15.08284292 23.04020847 -16.40186605 24.85119874 -17.875 27.875 C-17.875 28.535 -17.875 29.195 -17.875 29.875 C-11.44 29.38 -11.44 29.38 -4.875 28.875 C-5.04186646 24.04436193 -5.04186646 24.04436193 -7.625 20.25 C-9.9798683 19.65337986 -9.9798683 19.65337986 -12.4375 20.9375 Z " fill="#121C3F" transform="translate(579.875,13.125)"/>
<path d="M0 0 C7.90073364 4.2128912 12.34352809 9.97353917 15.46875 18.31640625 C17.91742775 28.22029395 16.85410709 37.9688617 12.0625 46.953125 C7.3071041 54.45633221 1.1127671 59.02427098 -7.34375 61.75390625 C-15.83580179 63.40084963 -24.73278374 62.21677572 -32.24609375 57.953125 C-39.41592523 52.8178098 -44.5956189 45.97835542 -46.53125 37.31640625 C-47.67067861 27.10902499 -46.62821392 18.00708109 -40.54296875 9.5546875 C-30.04858789 -2.86094443 -15.21685317 -6.42240715 0 0 Z M-23.34375 24.06640625 C-25.08371428 27.36318067 -24.97531988 29.63697014 -24.53125 33.31640625 C-23.03379139 35.92488254 -21.66096098 38.18669527 -19.53125 40.31640625 C-15.40715386 40.71295396 -13.20635915 40.74201854 -9.65625 38.50390625 C-6.88949253 35.65577356 -6.57272512 33.87632039 -6.28125 29.94140625 C-6.54945651 26.05241189 -7.1182777 24.33262163 -9.53125 21.31640625 C-14.98305141 17.73866158 -18.95834148 19.83221871 -23.34375 24.06640625 Z " fill="#121C3F" transform="translate(521.53125,16.68359375)"/>
<path d="M0 0 C1.25205243 2.50410487 0.95815898 3.80064009 0.66015625 6.5703125 C0.56669922 7.46621094 0.47324219 8.36210937 0.37695312 9.28515625 C0.27318359 10.22230469 0.16941406 11.15945312 0.0625 12.125 C-0.03740234 13.06988281 -0.13730469 14.01476562 -0.24023438 14.98828125 C-0.48818915 17.32614055 -0.74166315 19.6632689 -1 22 C-2.19496094 22.05607422 -2.19496094 22.05607422 -3.4140625 22.11328125 C-10.68253276 22.56424473 -15.78995924 23.12785827 -21.375 28.125 C-23.64515289 32.14142434 -23.91310943 35.49152219 -23 40 C-21.25 43.25 -21.25 43.25 -18 45 C-11.73585858 46.22662845 -6.73451375 44.37290224 -1 42 C-0.01 42 0.98 42 2 42 C1.67 49.92 1.34 57.84 1 66 C-10.72329414 69.90776471 -20.31813737 72.14295839 -32 67 C-39.77178398 62.48735124 -44.81651654 56.18126236 -47.80859375 47.7109375 C-50.78587372 36.08927912 -49.02407031 23.30585913 -43.20703125 12.8046875 C-37.7894077 4.70455133 -30.20369305 0.61296019 -20.875 -1.8125 C-13.78326266 -2.27500461 -6.79453609 -2.45695278 0 0 Z " fill="#121C3F" transform="translate(419,15)"/>
<path d="M0 0 C1 1 1 1 1.1328125 3.15234375 C1.11502064 9.49514232 0.7649178 15.70308741 0 22 C-1.19496094 22.05607422 -1.19496094 22.05607422 -2.4140625 22.11328125 C-8.31405732 22.47933932 -12.83622377 22.87455649 -18 26 C-18.66 26 -19.32 26 -20 26 C-22.33741766 30.52874672 -22.84809008 35.01070409 -22 40 C-20.25 43.25 -20.25 43.25 -17 45 C-10.24162737 46.37029996 -4.56024937 43.96807481 2 42 C2 49.92 2 57.84 2 66 C-9.83935465 69.94645155 -19.19638345 72.03417572 -31 67 C-39.33347235 62.38180573 -44.87380048 54.5993436 -47.53125 45.50390625 C-49.57160352 34.60501785 -48.21236115 22.68836633 -42.3125 13.1875 C-36.31426457 5.02693773 -29.83606246 0.59992951 -20.0625 -1.6875 C-12.94798866 -2.41347054 -6.86480682 -2.08395921 0 0 Z " fill="#121C3F" transform="translate(258,15)"/>
<path d="M0 0 C18.15 0 36.3 0 55 0 C54.67 6.93 54.34 13.86 54 21 C50.59112017 21.85221996 48.19565369 22.10783755 44.75 22.0625 C43.85796875 22.05347656 42.9659375 22.04445313 42.046875 22.03515625 C41.37140625 22.02355469 40.6959375 22.01195313 40 22 C39.91435791 23.14476807 39.82871582 24.28953613 39.74047852 25.46899414 C39.42041588 29.73886843 39.09725884 34.00850397 38.77319336 38.27807617 C38.63368422 40.12176301 38.4950008 41.96551253 38.35717773 43.80932617 C38.15828967 46.46810772 37.95637825 49.12664551 37.75390625 51.78515625 C37.6934462 52.60210464 37.63298615 53.41905304 37.57069397 54.26075745 C37.21580694 58.87696996 36.70867255 63.42438217 36 68 C28.80165024 69.43966995 21.34090518 69 14 69 C14 53.82 14 38.64 14 23 C9.38 23.33 4.76 23.66 0 24 C0 16.08 0 8.16 0 0 Z " fill="#121C3F" transform="translate(261,13)"/>
<path d="M0 0 C18.15 0 36.3 0 55 0 C54.67 6.93 54.34 13.86 54 21 C49.38 21.66 44.76 22.32 40 23 C38.68 37.85 37.36 52.7 36 68 C28.80165024 69.43966995 21.34090518 69 14 69 C14 53.82 14 38.64 14 23 C9.38 23.33 4.76 23.66 0 24 C0 16.08 0 8.16 0 0 Z " fill="#121C3F" transform="translate(126,13)"/>
<path d="M0 0 C17.82 0 35.64 0 54 0 C54 15 54 15 53 21 C49.85069107 22.04976964 47.61185544 22.10131595 44.3125 22.0625 C43.31863281 22.05347656 42.32476562 22.04445313 41.30078125 22.03515625 C40.16189453 22.01775391 40.16189453 22.01775391 39 22 C38.91435791 23.21582764 38.82871582 24.43165527 38.74047852 25.68432617 C38.42127183 30.20392739 38.09786136 34.72321973 37.77319336 39.24243164 C37.63337737 41.19677721 37.49469483 43.15120422 37.35717773 45.10571289 C37.15908423 47.91835457 36.95688915 50.73067622 36.75390625 53.54296875 C36.66321617 54.84949654 36.66321617 54.84949654 36.57069397 56.18241882 C36.27735813 60.19454302 35.93152491 64.07353464 35 68 C30 69 30 69 14 69 C14 53.82 14 38.64 14 23 C9.05 23.33 4.1 23.66 -1 24 C-1.0270491 20.93744039 -1.04686298 17.8751214 -1.0625 14.8125 C-1.07087891 13.94818359 -1.07925781 13.08386719 -1.08789062 12.19335938 C-1.09111328 11.35224609 -1.09433594 10.51113281 -1.09765625 9.64453125 C-1.10289307 8.87471924 -1.10812988 8.10490723 -1.11352539 7.31176758 C-1 5 -1 5 0 0 Z " fill="#121C3F" transform="translate(422,13)"/>
<path d="M0 0 C-0.50235822 14.78689376 -1.13611759 29.56683037 -1.86895752 44.34396362 C-1.95639976 46.11628795 -2.04229379 47.88868934 -2.12664795 49.66116333 C-2.24661 52.17018863 -2.37248436 54.67884868 -2.5 57.1875 C-2.53541901 57.94784042 -2.57083801 58.70818085 -2.60733032 59.49156189 C-2.88561026 64.77122051 -2.88561026 64.77122051 -4 67 C-8.34937867 68.32227764 -12.81123392 68.11479353 -17.3125 68.0625 C-18.05306641 68.05798828 -18.79363281 68.05347656 -19.55664062 68.04882812 C-21.37112899 68.03712175 -23.18557534 68.01918898 -25 68 C-26.07039396 59.2936913 -26.32664963 50.57220748 -26.5625 41.8125 C-26.58367889 41.06953674 -26.60485779 40.32657349 -26.62667847 39.56109619 C-26.99161219 26.70568848 -27.11786752 13.86065578 -27 1 C-17.96278689 0.05757182 -9.07448253 -0.11157151 0 0 Z " fill="#121C40" transform="translate(209,14)"/>
<path d="M0 0 C4.91935902 4.11619836 9.52647956 8.40410362 14 13 C18.91935902 8.88380164 23.52647956 4.59589638 28 0 C29.13199353 0.9080162 30.25532363 1.82683826 31.375 2.75 C32.00148437 3.26046875 32.62796875 3.7709375 33.2734375 4.296875 C35 6 35 6 37 10 C33.04 13.96 29.08 17.92 25 22 C27.00993705 26.01987409 28.93846389 28.14516995 32.125 31.25 C33.03507812 32.14203125 33.94515625 33.0340625 34.8828125 33.953125 C35.58148438 34.62859375 36.28015625 35.3040625 37 36 C35.23770311 39.77519562 33.23124812 42.30729323 30 45 C26.7597202 44.97194563 25.639912 43.67763071 23.203125 41.49609375 C22.21098818 40.48411419 21.22679868 39.46429231 20.25 38.4375 C19.74339844 37.91736328 19.23679687 37.39722656 18.71484375 36.86132812 C17.46965595 35.58089916 16.23388498 34.29132446 15 33 C11.40738344 35.99739015 7.97536484 38.9834251 4.8125 42.4375 C3.4203125 43.7059375 3.4203125 43.7059375 2 45 C-1.36867164 44.7465158 -2.99590787 43.34528023 -5.25 40.9375 C-5.77078125 40.38964844 -6.2915625 39.84179688 -6.828125 39.27734375 C-7.21484375 38.85582031 -7.6015625 38.43429688 -8 38 C-6.41332422 34.09714233 -3.86649519 31.66479018 -0.875 28.75 C0.03507812 27.85796875 0.94515625 26.9659375 1.8828125 26.046875 C2.58148438 25.37140625 3.28015625 24.6959375 4 24 C2.41332422 20.09714233 -0.13350481 17.66479018 -3.125 14.75 C-4.03507813 13.85796875 -4.94515625 12.9659375 -5.8828125 12.046875 C-6.58148438 11.37140625 -7.28015625 10.6959375 -8 10 C-6.07712966 5.70621187 -3.37521131 3.22846299 0 0 Z " fill="#121C3F" transform="translate(19,61)"/>
<path d="M0 0 C3.90285767 1.58667578 6.33520982 4.13350481 9.25 7.125 C10.14203125 8.03507812 11.0340625 8.94515625 11.953125 9.8828125 C12.62859375 10.58148438 13.3040625 11.28015625 14 12 C17.90285767 10.41332422 20.33520982 7.86649519 23.25 4.875 C24.14203125 3.96492187 25.0340625 3.05484375 25.953125 2.1171875 C26.62859375 1.41851562 27.3040625 0.71984375 28 0 C31.76488042 1.72154788 34.15063897 3.99234114 37 7 C35.41332422 10.90285767 32.86649519 13.33520982 29.875 16.25 C28.50988281 17.58804687 28.50988281 17.58804687 27.1171875 18.953125 C26.41851562 19.62859375 25.71984375 20.3040625 25 21 C26.58667578 24.90285767 29.13350481 27.33520982 32.125 30.25 C33.03507812 31.14203125 33.94515625 32.0340625 34.8828125 32.953125 C35.58148438 33.62859375 36.28015625 34.3040625 37 35 C35.27845212 38.76488042 33.00765886 41.15063897 30 44 C26.09714233 42.41332422 23.66479018 39.86649519 20.75 36.875 C19.41195312 35.50988281 19.41195312 35.50988281 18.046875 34.1171875 C17.37140625 33.41851562 16.6959375 32.71984375 16 32 C11.02632648 34.00793316 7.94492979 38.055458 4.33984375 41.8828125 C2 44 2 44 -1 44 C-2.60546875 42.46875 -2.60546875 42.46875 -4.1875 40.5 C-4.71730469 39.8503125 -5.24710938 39.200625 -5.79296875 38.53125 C-6.19128906 38.0259375 -6.58960938 37.520625 -7 37 C-5.41332422 33.09714233 -2.86649519 30.66479018 0.125 27.75 C1.03507812 26.85796875 1.94515625 25.9659375 2.8828125 25.046875 C3.58148438 24.37140625 4.28015625 23.6959375 5 23 C3.41332422 19.09714233 0.86649519 16.66479018 -2.125 13.75 C-3.03507812 12.85796875 -3.94515625 11.9659375 -4.8828125 11.046875 C-5.58148438 10.37140625 -6.28015625 9.6959375 -7 9 C-5.27845212 5.23511958 -3.00765886 2.84936103 0 0 Z " fill="#121D3F" transform="translate(67,12)"/>
<path d="M0 0 C5.54973901 5.51519707 8.13475317 9.20760289 8.3125 17.1875 C8.24129802 23.01311655 7.7584036 27.41912027 4 32 C-2.35048712 37.82660387 -7.3492877 39.38333273 -15.92578125 39.26953125 C-21.39270435 38.79022033 -25.0656983 37.10360601 -28.78515625 33.05859375 C-34.24710599 26.04715472 -34.91706798 19.80593689 -34 11 C-31.90840431 5.32925133 -27.9212134 1.34642511 -23 -2 C-15.54598561 -5.15362147 -6.72915998 -4.63564354 0 0 Z M-22.875 10.625 C-24.66470207 14.40325993 -24.7444406 17.90912164 -24 22 C-22.15015098 25.88879371 -19.52340955 27.75768076 -15.625 29.5625 C-11.040475 30.11580474 -8.93883497 29.37816451 -5 27 C-2.19049622 23.83030343 -1.13193399 21.72563693 -0.375 17.5625 C-1.22054289 12.74290552 -3.09489721 9.94537414 -7 7 C-13.14795031 4.60913043 -17.99000844 6.39134065 -22.875 10.625 Z " fill="#121C3F" transform="translate(96,66)"/>
<path d="M0 0 C5.11044527 2.96972487 8.57220678 7.05482812 11.0625 12.375 C12.48126881 19.32696718 12.07432605 25.17455976 8.6875 31.4375 C4.47317773 36.30017955 0.40651725 40.08136976 -6.16796875 40.7109375 C-13.61115611 40.93781074 -18.67368013 40.5333224 -24.3125 35.4375 C-30.09656457 29.19679875 -30.82702237 24.32328383 -30.6875 15.92578125 C-30.06262165 10.11311076 -27.87733728 6.67120949 -23.52734375 2.8828125 C-16.65352675 -2.28349582 -7.99584991 -3.61202486 0 0 Z M-19.3125 13.4375 C-21.04513912 16.90277824 -20.7844774 20.64857028 -20.3125 24.4375 C-18.51976402 27.55818856 -17.06990595 28.98715052 -14 30.8125 C-10.26822881 31.68035376 -8.00536057 31.53887947 -4.3125 30.4375 C-1.10890824 28.0067045 1.17711057 25.33323216 2.234375 21.40625 C2.50388095 17.51338632 1.68512542 14.96046992 -0.6875 12 C-4.2173586 8.55418565 -6.2408652 8.04194164 -11.20703125 8.078125 C-14.92843453 8.71331814 -16.71562849 10.77729016 -19.3125 13.4375 Z " fill="#121C3F" transform="translate(42.3125,14.5625)"/>
</svg>
